<svg id="Capa_1" enable-background="new 0 0 512 512" height="512" viewBox="0 0 512 512" width="512" xmlns="http://www.w3.org/2000/svg"><g><path d="m510.688 196.298-181.614-17.824-48.541-149.394c-3.861-11.883-14.197-17.824-24.533-17.824l-73.074 167.218h-157.081c-12.494 0-21.339 7.994-24.533 17.824l254.688 207.073 127.082 92.33c10.108 7.344 21.966 6.072 30.328-.003l-39.173-178.23 127.082-92.33c10.106-7.344 12.563-19.01 9.369-28.84z" fill="#ffe07d"/><path d="m256 291.667-17.833-17.833-100.403 43.634-48.541 149.393c-3.861 11.883 1.009 22.765 9.371 28.84z" fill="#ffd064"/><path d="m1.312 196.298c-3.194 9.83-.737 21.496 9.37 28.84l127.082 92.33 118.236-38.512z" fill="#ffa95f"/><path d="m98.595 495.701c8.362 6.075 20.216 7.343 30.324 0l127.081-92.33v-124.415z" fill="#ffa95f"/><g fill="#ffd064"><path d="m256 11.256c-10.336 0-20.672 5.941-24.533 17.824l-48.541 149.393 73.074 100.483z"/><path d="m510.688 196.298c-3.194-9.831-12.039-17.825-24.533-17.825h-157.082l-73.073 100.483z"/><path d="m413.409 495.698c8.359-6.076 13.228-16.956 9.367-28.837l-48.541-149.394-118.235-38.511z"/></g><circle cx="256" cy="278.956" fill="#fff0af" r="25.795"/></g></svg>